<svg xmlns="http://www.w3.org/2000/svg" viewBox="0 0 100 100" width="32" height="32">
  <!-- Background Circle -->
  <circle cx="50" cy="50" r="45" fill="#3498db" />
  
  <!-- Sun -->
  <circle cx="35" cy="40" r="15" fill="#f1c40f" />
  
  <!-- Cloud -->
  <path d="M75 55 C75 46.716 68.284 40 60 40 C54.648 40 50.011 43.078 47.800 47.600 C46.334 46.597 44.517 46 42.5 46 C37.806 46 34 49.806 34 54.5 C34 54.669 34.004 54.837 34.012 55.004 C30.584 56.271 28 59.632 28 63.5 C28 68.194 31.806 72 36.5 72 L75 72 C81.627 72 87 66.627 87 60 C87 55.029 81.627 50 75 55 Z" fill="white" />
</svg>